<svg width="133" height="66" viewBox="0 0 133 66" fill="none" xmlns="http://www.w3.org/2000/svg">
<g filter="url(#filter0_d_200_309)">
<rect x="14" y="14" width="106" height="36" fill="#4F793E"/>
<circle cx="67" cy="32" r="31" fill="#A9D393"/>
<g filter="url(#filter1_d_200_309)">
<mask id="path-3-outside-1_200_309" maskUnits="userSpaceOnUse" x="43.5" y="16" width="47" height="30" fill="black">
<rect fill="white" x="43.5" y="16" width="47" height="30"/>
<path d="M46.4336 44V18.5469H56.9453C62.6406 18.5469 65.5938 21.1484 65.5938 25.0156C65.5938 27.9336 63.625 29.9375 60.8477 30.5V30.7461C63.9062 30.8867 66.5781 33.207 66.5781 36.8984C66.5781 41.0117 63.3789 44 57.7539 44H46.4336ZM56.3477 39.1484C59.0898 39.1484 60.3203 38.0586 60.3203 36.2305C60.3203 34.2266 58.8438 32.9609 56.4531 32.9609H52.4102V39.1484H56.3477ZM55.9609 29.0586C58 29.0586 59.4766 27.9688 59.4766 26.1406C59.4766 24.418 58.1758 23.3281 56.0312 23.3281H52.4102V29.0586H55.9609ZM69.4609 44V39.6758L78.7422 31.5195C80.8867 29.5508 82.1172 28.25 82.1523 26.3164C82.1172 24.207 80.5703 22.8711 78.4258 22.8711C76.2461 22.8711 74.8047 24.2422 74.8047 26.5625H69.1094C69.1094 21.4297 72.8711 18.1953 78.4609 18.1953C84.1914 18.1953 87.9531 21.2891 87.9531 25.8594C87.9531 28.7773 86.5117 31.2031 80.9922 36.0195L77.793 38.9727V39.1484H88.2695V44H69.4609Z"/>
</mask>
<path d="M46.4336 44V18.5469H56.9453C62.6406 18.5469 65.5938 21.1484 65.5938 25.0156C65.5938 27.9336 63.625 29.9375 60.8477 30.5V30.7461C63.9062 30.8867 66.5781 33.207 66.5781 36.8984C66.5781 41.0117 63.3789 44 57.7539 44H46.4336ZM56.3477 39.1484C59.0898 39.1484 60.3203 38.0586 60.3203 36.2305C60.3203 34.2266 58.8438 32.9609 56.4531 32.9609H52.4102V39.1484H56.3477ZM55.9609 29.0586C58 29.0586 59.4766 27.9688 59.4766 26.1406C59.4766 24.418 58.1758 23.3281 56.0312 23.3281H52.4102V29.0586H55.9609ZM69.4609 44V39.6758L78.7422 31.5195C80.8867 29.5508 82.1172 28.25 82.1523 26.3164C82.1172 24.207 80.5703 22.8711 78.4258 22.8711C76.2461 22.8711 74.8047 24.2422 74.8047 26.5625H69.1094C69.1094 21.4297 72.8711 18.1953 78.4609 18.1953C84.1914 18.1953 87.9531 21.2891 87.9531 25.8594C87.9531 28.7773 86.5117 31.2031 80.9922 36.0195L77.793 38.9727V39.1484H88.2695V44H69.4609Z" fill="#CEFFC5"/>
<path d="M46.4336 44H44.4336V46H46.4336V44ZM46.4336 18.5469V16.5469H44.4336V18.5469H46.4336ZM60.8477 30.5L60.4507 28.5398L58.8477 28.8645V30.5H60.8477ZM60.8477 30.7461H58.8477V32.6563L60.7558 32.744L60.8477 30.7461ZM52.4102 32.9609V30.9609H50.4102V32.9609H52.4102ZM52.4102 39.1484H50.4102V41.1484H52.4102V39.1484ZM52.4102 23.3281V21.3281H50.4102V23.3281H52.4102ZM52.4102 29.0586H50.4102V31.0586H52.4102V29.0586ZM46.4336 44H48.4336V18.5469H46.4336H44.4336V44H46.4336ZM46.4336 18.5469V20.5469H56.9453V18.5469V16.5469H46.4336V18.5469ZM56.9453 18.5469V20.5469C59.5191 20.5469 61.1903 21.138 62.1734 21.9067C63.0956 22.6277 63.5938 23.6405 63.5938 25.0156H65.5938H67.5938C67.5938 22.5235 66.6153 20.302 64.6371 18.7554C62.7199 17.2565 60.0669 16.5469 56.9453 16.5469V18.5469ZM65.5938 25.0156H63.5938C63.5938 26.8297 62.4533 28.1342 60.4507 28.5398L60.8477 30.5L61.2447 32.4602C64.7967 31.7408 67.5938 29.0375 67.5938 25.0156H65.5938ZM60.8477 30.5H58.8477V30.7461H60.8477H62.8477V30.5H60.8477ZM60.8477 30.7461L60.7558 32.744C62.8166 32.8387 64.5781 34.3445 64.5781 36.8984H66.5781H68.5781C68.5781 32.0695 64.9959 28.9347 60.9395 28.7482L60.8477 30.7461ZM66.5781 36.8984H64.5781C64.5781 38.3998 64.013 39.6009 62.9897 40.4597C61.9355 41.3444 60.2263 42 57.7539 42V44V46C60.9066 46 63.6094 45.1615 65.561 43.5237C67.5436 41.86 68.5781 39.5103 68.5781 36.8984H66.5781ZM57.7539 44V42H46.4336V44V46H57.7539V44ZM56.3477 39.1484V41.1484C57.9331 41.1484 59.4374 40.8417 60.5828 39.9595C61.8202 39.0063 62.3203 37.6336 62.3203 36.2305H60.3203H58.3203C58.3203 36.6555 58.2052 36.7418 58.1418 36.7905C57.9864 36.9103 57.5044 37.1484 56.3477 37.1484V39.1484ZM60.3203 36.2305H62.3203C62.3203 34.701 61.7367 33.3033 60.5773 32.3194C59.4549 31.3668 57.9843 30.9609 56.4531 30.9609V32.9609V34.9609C57.3126 34.9609 57.7756 35.1879 57.9891 35.3691C58.1657 35.519 58.3203 35.7561 58.3203 36.2305H60.3203ZM56.4531 32.9609V30.9609H52.4102V32.9609V34.9609H56.4531V32.9609ZM52.4102 32.9609H50.4102V39.1484H52.4102H54.4102V32.9609H52.4102ZM52.4102 39.1484V41.1484H56.3477V39.1484V37.1484H52.4102V39.1484ZM55.9609 29.0586V31.0586C57.3166 31.0586 58.6734 30.6974 59.7355 29.8447C60.8427 28.9558 61.4766 27.6476 61.4766 26.1406H59.4766H57.4766C57.4766 26.4618 57.3721 26.6125 57.2313 26.7256C57.0453 26.8749 56.6443 27.0586 55.9609 27.0586V29.0586ZM59.4766 26.1406H61.4766C61.4766 24.7332 60.9224 23.4431 59.8283 22.5435C58.7788 21.6806 57.4211 21.3281 56.0312 21.3281V23.3281V25.3281C56.7859 25.3281 57.1509 25.5206 57.2879 25.6332C57.3803 25.7092 57.4766 25.8254 57.4766 26.1406H59.4766ZM56.0312 23.3281V21.3281H52.4102V23.3281V25.3281H56.0312V23.3281ZM52.4102 23.3281H50.4102V29.0586H52.4102H54.4102V23.3281H52.4102ZM52.4102 29.0586V31.0586H55.9609V29.0586V27.0586H52.4102V29.0586ZM69.4609 44H67.4609V46H69.4609V44ZM69.4609 39.6758L68.1407 38.1735L67.4609 38.7708V39.6758H69.4609ZM78.7422 31.5195L80.0624 33.0219L80.0787 33.0075L80.0947 32.9928L78.7422 31.5195ZM82.1523 26.3164L84.152 26.3528L84.1526 26.3179L84.1521 26.2831L82.1523 26.3164ZM74.8047 26.5625V28.5625H76.8047V26.5625H74.8047ZM69.1094 26.5625H67.1094V28.5625H69.1094V26.5625ZM80.9922 36.0195L79.6772 34.5126L79.6562 34.531L79.6356 34.5499L80.9922 36.0195ZM77.793 38.9727L76.4364 37.503L75.793 38.097V38.9727H77.793ZM77.793 39.1484H75.793V41.1484H77.793V39.1484ZM88.2695 39.1484H90.2695V37.1484H88.2695V39.1484ZM88.2695 44V46H90.2695V44H88.2695ZM69.4609 44H71.4609V39.6758H69.4609H67.4609V44H69.4609ZM69.4609 39.6758L70.7812 41.1781L80.0624 33.0219L78.7422 31.5195L77.422 30.0172L68.1407 38.1735L69.4609 39.6758ZM78.7422 31.5195L80.0947 32.9928C82.129 31.1253 84.099 29.27 84.152 26.3528L82.1523 26.3164L80.1527 26.28C80.1354 27.23 79.6444 27.9763 77.3896 30.0462L78.7422 31.5195ZM82.1523 26.3164L84.1521 26.2831C84.126 24.7208 83.5245 23.3193 82.4235 22.3211C81.3389 21.3377 79.9112 20.8711 78.4258 20.8711V22.8711V24.8711C79.0849 24.8711 79.5029 25.0724 79.7367 25.2844C79.954 25.4815 80.1435 25.8027 80.1526 26.3497L82.1523 26.3164ZM78.4258 22.8711V20.8711C76.9125 20.8711 75.461 21.3551 74.3836 22.4325C73.3044 23.5117 72.8047 24.9821 72.8047 26.5625H74.8047H76.8047C76.8047 25.8226 77.0257 25.4473 77.2121 25.2609C77.4003 25.0726 77.7593 24.8711 78.4258 24.8711V22.8711ZM74.8047 26.5625V24.5625H69.1094V26.5625V28.5625H74.8047V26.5625ZM69.1094 26.5625H71.1094C71.1094 24.516 71.8423 22.9888 73.0142 21.952C74.2118 20.8924 76.0424 20.1953 78.4609 20.1953V18.1953V16.1953C75.2896 16.1953 72.4444 17.1154 70.3637 18.9562C68.2573 20.8198 67.1094 23.4762 67.1094 26.5625H69.1094ZM78.4609 18.1953V20.1953C80.9819 20.1953 82.8751 20.8758 84.0955 21.8663C85.2803 22.828 85.9531 24.1715 85.9531 25.8594H87.9531H89.9531C89.9531 22.9769 88.7451 20.4884 86.6164 18.7606C84.5233 17.0617 81.6704 16.1953 78.4609 16.1953V18.1953ZM87.9531 25.8594H85.9531C85.9531 27.8116 85.181 29.7099 79.6772 34.5126L80.9922 36.0195L82.3072 37.5265C87.8424 32.6963 89.9531 29.7431 89.9531 25.8594H87.9531ZM80.9922 36.0195L79.6356 34.5499L76.4364 37.503L77.793 38.9727L79.1495 40.4423L82.3487 37.4891L80.9922 36.0195ZM77.793 38.9727H75.793V39.1484H77.793H79.793V38.9727H77.793ZM77.793 39.1484V41.1484H88.2695V39.1484V37.1484H77.793V39.1484ZM88.2695 39.1484H86.2695V44H88.2695H90.2695V39.1484H88.2695ZM88.2695 44V42H69.4609V44V46H88.2695V44Z" fill="#476F32" mask="url(#path-3-outside-1_200_309)"/>
</g>
</g>
<defs>
<filter id="filter0_d_200_309" x="0" y="0" width="133" height="67" filterUnits="userSpaceOnUse" color-interpolation-filters="sRGB">
<feFlood flood-opacity="0" result="BackgroundImageFix"/>
<feColorMatrix in="SourceAlpha" type="matrix" values="0 0 0 0 0 0 0 0 0 0 0 0 0 0 0 0 0 0 127 0" result="hardAlpha"/>
<feOffset dy="3"/>
<feComposite in2="hardAlpha" operator="out"/>
<feColorMatrix type="matrix" values="0 0 0 0 0 0 0 0 0 0 0 0 0 0 0 0 0 0 0.6 0"/>
<feBlend mode="normal" in2="BackgroundImageFix" result="effect1_dropShadow_200_309"/>
<feBlend mode="normal" in="SourceGraphic" in2="effect1_dropShadow_200_309" result="shape"/>
</filter>
<filter id="filter1_d_200_309" x="44.4336" y="16.1953" width="45.8359" height="32.8047" filterUnits="userSpaceOnUse" color-interpolation-filters="sRGB">
<feFlood flood-opacity="0" result="BackgroundImageFix"/>
<feColorMatrix in="SourceAlpha" type="matrix" values="0 0 0 0 0 0 0 0 0 0 0 0 0 0 0 0 0 0 127 0" result="hardAlpha"/>
<feOffset dy="3"/>
<feComposite in2="hardAlpha" operator="out"/>
<feColorMatrix type="matrix" values="0 0 0 0 0 0 0 0 0 0 0 0 0 0 0 0 0 0 0.6 0"/>
<feBlend mode="normal" in2="BackgroundImageFix" result="effect1_dropShadow_200_309"/>
<feBlend mode="normal" in="SourceGraphic" in2="effect1_dropShadow_200_309" result="shape"/>
</filter>
</defs>
</svg>
